<svg xmlns="http://www.w3.org/2000/svg" viewBox="0 0 500 200" width="500" height="200" role="img" aria-label="GEODESIC-M logo (dark theme): a geodesic trajectory descending a warped energy landscape, beside the wordmark GEODESIC-M">
  <title>GEODESIC-M</title>
  <defs>
    <radialGradient id="gm-well-dark" cx="52%" cy="82%" r="62%">
      <stop offset="0" stop-color="#ffffff" stop-opacity="0.10"/>
      <stop offset="0.55" stop-color="#ffffff" stop-opacity="0.035"/>
      <stop offset="1" stop-color="#ffffff" stop-opacity="0"/>
    </radialGradient>
  </defs>

  <g transform="translate(6,8) scale(0.76)">
    <path d="M 18,22 Q 118,28 232,25 L 232,162 Q 118,192 18,154 Z" fill="url(#gm-well-dark)"/>

    <g fill="none" stroke="#e6e7ea" stroke-width="1.4" stroke-linecap="round">
      <path d="M 18,22  Q 118,28  232,25"  opacity="0.35"/>
      <path d="M 18,44  Q 118,56  232,47"  opacity="0.45"/>
      <path d="M 18,66  Q 118,86  232,70"  opacity="0.55"/>
      <path d="M 18,88  Q 118,116 232,93"  opacity="0.65"/>
      <path d="M 18,110 Q 118,144 232,116" opacity="0.72"/>
      <path d="M 18,132 Q 118,170 232,139" opacity="0.80"/>
      <path d="M 18,154 Q 118,192 232,162" opacity="0.86"/>
    </g>

    <path d="M 22,30 C 60,54 80,98 110,122 C 140,146 190,150 226,158"
          fill="none" stroke="#d1673a" stroke-width="8" stroke-linecap="round" opacity="0.18"/>
    <path d="M 22,30 C 60,54 80,98 110,122 C 140,146 190,150 226,158"
          fill="none" stroke="#d1673a" stroke-width="4.5" stroke-linecap="round"/>
    <circle cx="22" cy="30" r="5.5" fill="#d1673a"/>
    <circle cx="226" cy="158" r="5.5" fill="#d1673a"/>
  </g>

  <text x="210" y="108" font-family="ui-monospace, 'JetBrains Mono', Menlo, Consolas, monospace"
        font-size="46" font-weight="600" letter-spacing="0.5" fill="#e6e7ea">GEODESIC<tspan fill="#d1673a">-M</tspan></text>
</svg>
