<svg xmlns="http://www.w3.org/2000/svg" viewBox="0 0 500 200" width="500" height="200" role="img" aria-label="GEODESIC-M logo: a trajectory curving into a warped energy landscape, beside the wordmark GEODESIC-M">
  <title>GEODESIC-M</title>

  <g transform="translate(6,4) scale(0.75)">
    <g fill="none" stroke="#1c1e22" stroke-width="1.3" opacity="0.8">
      <path d="M 15,22 Q 90,25 225,21"/>
      <path d="M 15,60 Q 90,67 225,58"/>
      <path d="M 15,98 Q 90,115 225,93"/>
      <path d="M 15,136 Q 90,170 225,126"/>
      <path d="M 15,174 Q 90,191 225,169"/>
      <path d="M 15,212 Q 90,219 225,210"/>
    </g>
    <path d="M 20,45 C 70,60 85,110 95,135 C 108,162 160,175 222,195"
          fill="none" stroke="#a8481f" stroke-width="4.5" stroke-linecap="round"/>
    <circle cx="20" cy="45" r="5.5" fill="#a8481f"/>
    <circle cx="222" cy="195" r="5.5" fill="#a8481f"/>
  </g>

  <text x="212" y="118" font-family="ui-monospace, 'JetBrains Mono', Menlo, Consolas, monospace"
        font-size="46" font-weight="600" letter-spacing="0.5" fill="#1c1e22">GEODESIC<tspan fill="#a8481f">-M</tspan></text>
</svg>
