<svg xmlns="http://www.w3.org/2000/svg" viewBox="0 0 240 240" width="240" height="240" role="img" aria-label="GEODESIC-M mark: a geodesic descending a warped energy landscape">
  <title>GEODESIC-M mark</title>
  <defs>
    <radialGradient id="gm-mark-well" cx="52%" cy="82%" r="62%">
      <stop offset="0" stop-color="#1c1e22" stop-opacity="0.13"/>
      <stop offset="0.55" stop-color="#1c1e22" stop-opacity="0.05"/>
      <stop offset="1" stop-color="#1c1e22" stop-opacity="0"/>
    </radialGradient>
  </defs>

  <g transform="translate(-5,13)">
    <path d="M 18,22 Q 118,28 232,25 L 232,162 Q 118,192 18,154 Z" fill="url(#gm-mark-well)"/>

    <g fill="none" stroke="#1c1e22" stroke-width="1.8" stroke-linecap="round">
      <path d="M 18,22  Q 118,28  232,25"  opacity="0.35"/>
      <path d="M 18,44  Q 118,56  232,47"  opacity="0.45"/>
      <path d="M 18,66  Q 118,86  232,70"  opacity="0.55"/>
      <path d="M 18,88  Q 118,116 232,93"  opacity="0.65"/>
      <path d="M 18,110 Q 118,144 232,116" opacity="0.72"/>
      <path d="M 18,132 Q 118,170 232,139" opacity="0.80"/>
      <path d="M 18,154 Q 118,192 232,162" opacity="0.86"/>
    </g>

    <path d="M 22,30 C 60,54 80,98 110,122 C 140,146 190,150 226,158"
          fill="none" stroke="#a8481f" stroke-width="9" stroke-linecap="round" opacity="0.16"/>
    <path d="M 22,30 C 60,54 80,98 110,122 C 140,146 190,150 226,158"
          fill="none" stroke="#a8481f" stroke-width="5.5" stroke-linecap="round"/>
    <circle cx="22" cy="30" r="6" fill="#a8481f"/>
    <circle cx="226" cy="158" r="6" fill="#a8481f"/>
  </g>
</svg>
